<mxfile host="65bd71144e">
    <diagram name="Page-1" id="fZ25Gu6tJJV7xPzqpItU">
        <mxGraphModel dx="2168" dy="1161" grid="1" gridSize="10" guides="1" tooltips="1" connect="1" arrows="1" fold="1" page="1" pageScale="1" pageWidth="1169" pageHeight="827" math="0" shadow="0">
            <root>
                <mxCell id="0"/>
                <mxCell id="1" parent="0"/>
                <mxCell id="HZ2ZFBTA2w2IdbeZNzEM-9" style="edgeStyle=orthogonalEdgeStyle;rounded=0;orthogonalLoop=1;jettySize=auto;html=1;entryX=0.5;entryY=0;entryDx=0;entryDy=0;" parent="1" source="HZ2ZFBTA2w2IdbeZNzEM-1" target="HZ2ZFBTA2w2IdbeZNzEM-3" edge="1">
                    <mxGeometry relative="1" as="geometry"/>
                </mxCell>
                <mxCell id="HZ2ZFBTA2w2IdbeZNzEM-10" value="on:rtcTick&lt;br&gt;showLoRaWANConfig()" style="edgeLabel;html=1;align=center;verticalAlign=middle;resizable=0;points=[];" parent="HZ2ZFBTA2w2IdbeZNzEM-9" vertex="1" connectable="0">
                    <mxGeometry x="0.1825" relative="1" as="geometry">
                        <mxPoint as="offset"/>
                    </mxGeometry>
                </mxCell>
                <mxCell id="HZ2ZFBTA2w2IdbeZNzEM-1" value="boot" style="rounded=1;whiteSpace=wrap;html=1;" parent="1" vertex="1">
                    <mxGeometry x="480" y="80" width="160" height="80" as="geometry"/>
                </mxCell>
                <mxCell id="HZ2ZFBTA2w2IdbeZNzEM-7" style="edgeStyle=orthogonalEdgeStyle;rounded=0;orthogonalLoop=1;jettySize=auto;html=1;entryX=0;entryY=0.5;entryDx=0;entryDy=0;" parent="1" source="HZ2ZFBTA2w2IdbeZNzEM-2" target="HZ2ZFBTA2w2IdbeZNzEM-1" edge="1">
                    <mxGeometry relative="1" as="geometry"/>
                </mxCell>
                <mxCell id="HZ2ZFBTA2w2IdbeZNzEM-8" value="config OK&lt;br&gt;showDeviceInfo()" style="edgeLabel;html=1;align=center;verticalAlign=middle;resizable=0;points=[];" parent="HZ2ZFBTA2w2IdbeZNzEM-7" vertex="1" connectable="0">
                    <mxGeometry x="0.2875" y="1" relative="1" as="geometry">
                        <mxPoint x="-33" y="-9" as="offset"/>
                    </mxGeometry>
                </mxCell>
                <mxCell id="HZ2ZFBTA2w2IdbeZNzEM-2" value="" style="ellipse;whiteSpace=wrap;html=1;aspect=fixed;" parent="1" vertex="1">
                    <mxGeometry x="240" y="80" width="80" height="80" as="geometry"/>
                </mxCell>
                <mxCell id="HZ2ZFBTA2w2IdbeZNzEM-11" style="edgeStyle=orthogonalEdgeStyle;rounded=0;orthogonalLoop=1;jettySize=auto;html=1;entryX=1;entryY=0.25;entryDx=0;entryDy=0;exitX=1.01;exitY=0.792;exitDx=0;exitDy=0;exitPerimeter=0;" parent="1" source="HZ2ZFBTA2w2IdbeZNzEM-3" target="HZ2ZFBTA2w2IdbeZNzEM-3" edge="1">
                    <mxGeometry relative="1" as="geometry">
                        <mxPoint x="560" y="550" as="targetPoint"/>
                        <Array as="points">
                            <mxPoint x="780" y="413"/>
                            <mxPoint x="780" y="370"/>
                        </Array>
                    </mxGeometry>
                </mxCell>
                <mxCell id="HZ2ZFBTA2w2IdbeZNzEM-12" value="on:LoRaWANanswer&lt;br&gt;showLoRaWANStatus()&lt;br&gt;answerCounter++" style="edgeLabel;html=1;align=center;verticalAlign=middle;resizable=0;points=[];" parent="HZ2ZFBTA2w2IdbeZNzEM-11" vertex="1" connectable="0">
                    <mxGeometry x="-0.754" y="1" relative="1" as="geometry">
                        <mxPoint x="59" y="25" as="offset"/>
                    </mxGeometry>
                </mxCell>
                <mxCell id="HZ2ZFBTA2w2IdbeZNzEM-16" value="" style="edgeStyle=orthogonalEdgeStyle;rounded=0;orthogonalLoop=1;jettySize=auto;html=1;exitX=0;exitY=0.75;exitDx=0;exitDy=0;entryX=0;entryY=0.25;entryDx=0;entryDy=0;" parent="1" source="HZ2ZFBTA2w2IdbeZNzEM-3" target="HZ2ZFBTA2w2IdbeZNzEM-3" edge="1">
                    <mxGeometry relative="1" as="geometry">
                        <Array as="points">
                            <mxPoint x="360" y="410"/>
                            <mxPoint x="360" y="370"/>
                        </Array>
                    </mxGeometry>
                </mxCell>
                <mxCell id="HZ2ZFBTA2w2IdbeZNzEM-17" value="on:rtcTick&lt;br&gt;sendUplink()&lt;br&gt;trialCounter++" style="edgeLabel;html=1;align=center;verticalAlign=middle;resizable=0;points=[];" parent="HZ2ZFBTA2w2IdbeZNzEM-16" vertex="1" connectable="0">
                    <mxGeometry x="-0.2833" relative="1" as="geometry">
                        <mxPoint as="offset"/>
                    </mxGeometry>
                </mxCell>
                <mxCell id="HZ2ZFBTA2w2IdbeZNzEM-20" style="rounded=0;orthogonalLoop=1;jettySize=auto;html=1;exitX=0.75;exitY=1;exitDx=0;exitDy=0;entryX=0.25;entryY=0;entryDx=0;entryDy=0;" parent="1" source="HZ2ZFBTA2w2IdbeZNzEM-3" target="HZ2ZFBTA2w2IdbeZNzEM-5" edge="1">
                    <mxGeometry relative="1" as="geometry"/>
                </mxCell>
                <mxCell id="HZ2ZFBTA2w2IdbeZNzEM-21" value="on:LoraWANanswer &lt;br&gt;with answerCounter &amp;gt; threshold" style="edgeLabel;html=1;align=center;verticalAlign=middle;resizable=0;points=[];" parent="HZ2ZFBTA2w2IdbeZNzEM-20" vertex="1" connectable="0">
                    <mxGeometry x="-0.5298" relative="1" as="geometry">
                        <mxPoint as="offset"/>
                    </mxGeometry>
                </mxCell>
                <mxCell id="HZ2ZFBTA2w2IdbeZNzEM-3" value="networkCheck" style="rounded=1;whiteSpace=wrap;html=1;" parent="1" vertex="1">
                    <mxGeometry x="480" y="350" width="160" height="80" as="geometry"/>
                </mxCell>
                <mxCell id="HZ2ZFBTA2w2IdbeZNzEM-5" value="idle" style="rounded=1;whiteSpace=wrap;html=1;" parent="1" vertex="1">
                    <mxGeometry x="600" y="680" width="160" height="80" as="geometry"/>
                </mxCell>
                <mxCell id="HZ2ZFBTA2w2IdbeZNzEM-6" value="error" style="ellipse;whiteSpace=wrap;html=1;aspect=fixed;" parent="1" vertex="1">
                    <mxGeometry x="440" y="680" width="80" height="80" as="geometry"/>
                </mxCell>
                <mxCell id="HZ2ZFBTA2w2IdbeZNzEM-18" value="" style="rounded=0;orthogonalLoop=1;jettySize=auto;html=1;exitX=0.25;exitY=1;exitDx=0;exitDy=0;" parent="1" source="HZ2ZFBTA2w2IdbeZNzEM-3" target="HZ2ZFBTA2w2IdbeZNzEM-6" edge="1">
                    <mxGeometry relative="1" as="geometry">
                        <mxPoint x="490" y="350" as="sourcePoint"/>
                        <mxPoint x="490" y="310" as="targetPoint"/>
                    </mxGeometry>
                </mxCell>
                <mxCell id="HZ2ZFBTA2w2IdbeZNzEM-19" value="on:rtcTick&lt;br&gt;trialCounter &amp;gt; max" style="edgeLabel;html=1;align=center;verticalAlign=middle;resizable=0;points=[];" parent="HZ2ZFBTA2w2IdbeZNzEM-18" vertex="1" connectable="0">
                    <mxGeometry x="-0.2833" relative="1" as="geometry">
                        <mxPoint as="offset"/>
                    </mxGeometry>
                </mxCell>
                <mxCell id="2" style="edgeStyle=orthogonalEdgeStyle;rounded=0;orthogonalLoop=1;jettySize=auto;html=1;entryX=0;entryY=0.5;entryDx=0;entryDy=0;exitX=0.5;exitY=1;exitDx=0;exitDy=0;" edge="1" parent="1" source="HZ2ZFBTA2w2IdbeZNzEM-2" target="HZ2ZFBTA2w2IdbeZNzEM-6">
                    <mxGeometry relative="1" as="geometry">
                        <mxPoint x="330" y="130" as="sourcePoint"/>
                        <mxPoint x="490" y="130" as="targetPoint"/>
                    </mxGeometry>
                </mxCell>
                <mxCell id="3" value="config NOK&lt;br&gt;showDeviceInfo()" style="edgeLabel;html=1;align=center;verticalAlign=middle;resizable=0;points=[];" vertex="1" connectable="0" parent="2">
                    <mxGeometry x="0.2875" y="1" relative="1" as="geometry">
                        <mxPoint x="-33" y="-9" as="offset"/>
                    </mxGeometry>
                </mxCell>
            </root>
        </mxGraphModel>
    </diagram>
</mxfile>